<svg width="47" height="43" viewBox="0 0 47 43" fill="none" xmlns="http://www.w3.org/2000/svg">
<g id="Frame" clip-path="url(#clip0_1_1210)">
<g id="Group">
<path id="Vector" d="M35.2 12.7398V29.6498C35.2 31.8298 33.44 33.5898 31.26 33.5898L17.6 33.6598L9.6 42.4598V33.6598H3.94C1.77 33.6598 0 31.8898 0 29.7098V12.7998C0 10.6198 1.77 8.8498 3.94 8.8498L31.26 8.7998C33.43 8.7998 35.2 10.5698 35.2 12.7398Z" fill="#EA3A60"/>
<path id="Vector_2" d="M17.6004 17.6H7.20039C6.76039 17.6 6.40039 17.24 6.40039 16.8C6.40039 16.36 6.76039 16 7.20039 16H17.6004C18.0404 16 18.4004 16.36 18.4004 16.8C18.4004 17.24 18.0404 17.6 17.6004 17.6Z" fill="white"/>
<path id="Vector_3" d="M28.0004 22.3998H7.20039C6.76039 22.3998 6.40039 22.0398 6.40039 21.5998C6.40039 21.1598 6.76039 20.7998 7.20039 20.7998H28.0004C28.4404 20.7998 28.8004 21.1598 28.8004 21.5998C28.8004 22.0398 28.4404 22.3998 28.0004 22.3998Z" fill="white"/>
<path id="Vector_4" d="M28.0004 27.2001H7.20039C6.76039 27.2001 6.40039 26.8401 6.40039 26.4001C6.40039 25.9601 6.76039 25.6001 7.20039 25.6001H28.0004C28.4404 25.6001 28.8004 25.9501 28.8004 26.4001C28.8004 26.8401 28.4404 27.2001 28.0004 27.2001Z" fill="white"/>
<path id="Vector_5" opacity="0.5" d="M42.4604 0.05L15.1404 0C12.9604 0 11.1904 1.77 11.1904 3.94V8.84L31.2604 8.8C33.4404 8.8 35.2004 10.56 35.2004 12.74V27.5L40.8004 33.66V24.86H42.4604C44.6404 24.86 46.4004 23.1 46.4004 20.92V4C46.4004 1.82 44.6304 0.05 42.4604 0.05Z" fill="#EA3A60"/>
</g>
</g>
<defs>
<clipPath id="clip0_1_1210">
<rect width="46.4" height="42.46" fill="white"/>
</clipPath>
</defs>
</svg>
