<svg width="96" height="104" viewBox="0 0 96 104" fill="none" xmlns="http://www.w3.org/2000/svg">
<g id="Group">
<g id="Rounded Rectangle 528" filter="url(#filter0_d_1_796)">
<path fill-rule="evenodd" clip-rule="evenodd" d="M48.4665 16.9999C63.0889 16.9999 74.9427 28.8644 74.9427 43.4999C74.9427 58.1353 63.0889 69.9999 48.4665 69.9999C33.8441 69.9999 21.9903 58.1353 21.9903 43.4999C21.9903 28.8644 33.8441 16.9999 48.4665 16.9999Z" fill="#FF4361"/>
<path fill-rule="evenodd" clip-rule="evenodd" d="M48.4665 16.9999C63.0889 16.9999 74.9427 28.8644 74.9427 43.4999C74.9427 58.1353 63.0889 69.9999 48.4665 69.9999C33.8441 69.9999 21.9903 58.1353 21.9903 43.4999C21.9903 28.8644 33.8441 16.9999 48.4665 16.9999Z" fill="url(#paint0_linear_1_796)"/>
</g>
<g id="Rounded Rectangle 528 copy">
<path fill-rule="evenodd" clip-rule="evenodd" d="M42.9722 0.999936H52.9631C69.5168 0.999936 82.9362 14.4311 82.9362 30.9999V40.9999C82.9362 57.5682 69.5168 70.9998 52.9631 70.9998H42.9722C26.4185 70.9998 12.999 57.5682 12.999 40.9999V30.9999C12.999 14.4311 26.4185 0.999936 42.9722 0.999936Z" fill="#FF4361"/>
<path fill-rule="evenodd" clip-rule="evenodd" d="M42.9722 0.999936H52.9631C69.5168 0.999936 82.9362 14.4311 82.9362 30.9999V40.9999C82.9362 57.5682 69.5168 70.9998 52.9631 70.9998H42.9722C26.4185 70.9998 12.999 57.5682 12.999 40.9999V30.9999C12.999 14.4311 26.4185 0.999936 42.9722 0.999936Z" fill="url(#paint1_linear_1_796)"/>
</g>
<path id="Shape 1" fill-rule="evenodd" clip-rule="evenodd" d="M56.9079 31.0026C56.8163 30.7972 56.6192 30.6655 56.4021 30.6655H49.786L56.3155 19.894C56.4244 19.7144 56.431 19.487 56.3328 19.3015C56.2346 19.1144 56.047 18.9988 55.8437 18.9988H46.9106C46.6991 18.9988 46.5059 19.1236 46.411 19.3214L38.0363 36.8214C37.9497 37.0021 37.9592 37.2166 38.0607 37.3886C38.163 37.5607 38.3421 37.665 38.5359 37.665H44.2771L38.0212 53.1891C37.9145 53.4547 38.0094 53.7623 38.2445 53.9133C38.3348 53.9703 38.4353 53.9988 38.5354 53.9988C38.6955 53.9988 38.8536 53.9268 38.963 53.7918L56.8291 31.6252C56.9693 31.4515 56.9994 31.2085 56.9079 31.0026Z" fill="white"/>
</g>
<defs>
<filter id="filter0_d_1_796" x="0.990234" y="9" width="94.9521" height="95" filterUnits="userSpaceOnUse" color-interpolation-filters="sRGB">
<feFlood flood-opacity="0" result="BackgroundImageFix"/>
<feColorMatrix in="SourceAlpha" type="matrix" values="0 0 0 0 0 0 0 0 0 0 0 0 0 0 0 0 0 0 127 0" result="hardAlpha"/>
<feOffset dy="13"/>
<feGaussianBlur stdDeviation="10.5"/>
<feColorMatrix type="matrix" values="0 0 0 0 0.898039 0 0 0 0 0.117647 0 0 0 0 0.435294 0 0 0 0.3 0"/>
<feBlend mode="normal" in2="BackgroundImageFix" result="effect1_dropShadow_1_796"/>
<feBlend mode="normal" in="SourceGraphic" in2="effect1_dropShadow_1_796" result="shape"/>
</filter>
<linearGradient id="paint0_linear_1_796" x1="52.598" y1="102.635" x2="107.605" y2="39.4138" gradientUnits="userSpaceOnUse">
<stop stop-color="#F80759"/>
<stop offset="1" stop-color="#BC4E9C"/>
</linearGradient>
<linearGradient id="paint1_linear_1_796" x1="53.3761" y1="113.413" x2="125.385" y2="30.6507" gradientUnits="userSpaceOnUse">
<stop stop-color="#F80759"/>
<stop offset="1" stop-color="#BC4E9C"/>
</linearGradient>
</defs>
</svg>
