<svg width="96" height="104" viewBox="0 0 96 104" fill="none" xmlns="http://www.w3.org/2000/svg">
<g id="Group">
<g id="Rounded Rectangle 528" filter="url(#filter0_d_1_815)">
<path fill-rule="evenodd" clip-rule="evenodd" d="M47.9597 16.9999C62.582 16.9999 74.4359 28.8644 74.4359 43.4999C74.4359 58.1353 62.582 69.9999 47.9597 69.9999C33.3373 69.9999 21.4835 58.1353 21.4835 43.4999C21.4835 28.8644 33.3373 16.9999 47.9597 16.9999Z" fill="#FF4361"/>
</g>
<g id="Rounded Rectangle 528 copy">
<path fill-rule="evenodd" clip-rule="evenodd" d="M42.4652 0.999936H52.4564C69.0101 0.999936 82.4295 14.4311 82.4295 30.9999V40.9999C82.4295 57.5682 69.0101 70.9998 52.4564 70.9998H42.4652C25.9116 70.9998 12.4922 57.5682 12.4922 40.9999V30.9999C12.4922 14.4311 25.9116 0.999936 42.4652 0.999936Z" fill="#FF4361"/>
<path fill-rule="evenodd" clip-rule="evenodd" d="M42.4652 0.999936H52.4564C69.0101 0.999936 82.4295 14.4311 82.4295 30.9999V40.9999C82.4295 57.5682 69.0101 70.9998 52.4564 70.9998H42.4652C25.9116 70.9998 12.4922 57.5682 12.4922 40.9999V30.9999C12.4922 14.4311 25.9116 0.999936 42.4652 0.999936Z" fill="url(#paint0_linear_1_815)"/>
</g>
<path id="Combined shape 16724" fill-rule="evenodd" clip-rule="evenodd" d="M64.9888 31.8585C64.9945 31.9607 64.987 32.0644 64.9616 32.1687L62.6813 41.3348C62.5663 41.7961 62.1544 42.1214 61.6811 42.1241L47.9998 42.1934C47.9981 42.1934 47.9964 42.1934 47.9945 42.1934H34.3133C33.8373 42.1934 33.4226 41.8671 33.3077 41.4031L31.0275 32.202C31.0011 32.0956 30.9936 31.9886 31.0002 31.8838C30.1181 31.6047 29.4766 30.7752 29.4766 29.7977C29.4766 28.5908 30.4529 27.6096 31.6531 27.6096C32.8533 27.6096 33.8296 28.5908 33.8296 29.7977C33.8296 30.4768 33.5199 31.0843 33.035 31.4864L35.8898 34.3768C36.6114 35.1074 37.6125 35.5268 38.6367 35.5268C39.8479 35.5268 41.0027 34.9483 41.7298 33.98L46.4216 27.7321C46.0275 27.3365 45.7834 26.7897 45.7834 26.1865C45.7834 24.98 46.7597 23.9983 47.9599 23.9983C49.1601 23.9983 50.1365 24.98 50.1365 26.1865C50.1365 26.7714 49.9054 27.302 49.5318 27.695C49.5331 27.6967 49.5347 27.6983 49.5358 27.6999L54.1935 33.9649C54.9205 34.9424 56.0793 35.5268 57.2939 35.5268C58.3276 35.5268 59.2998 35.1219 60.0306 34.3875L62.9034 31.4999C62.4082 31.0983 62.0902 30.4854 62.0902 29.7977C62.0902 28.5908 63.0666 27.6096 64.2668 27.6096C65.4669 27.6096 66.4434 28.5908 66.4434 29.7977C66.4434 30.7488 65.8345 31.5585 64.9888 31.8585ZM62.4588 45.4569C62.4588 44.8821 61.9947 44.4155 61.4223 44.4155H34.6128C34.0403 44.4155 33.5762 44.8821 33.5762 45.4569V47.9569C33.5762 48.5327 34.0403 48.9988 34.6128 48.9988H61.4223C61.9947 48.9988 62.4588 48.5327 62.4588 47.9569V45.4569Z" fill="white"/>
</g>
<defs>
<filter id="filter0_d_1_815" x="0.483398" y="9" width="94.9521" height="95" filterUnits="userSpaceOnUse" color-interpolation-filters="sRGB">
<feFlood flood-opacity="0" result="BackgroundImageFix"/>
<feColorMatrix in="SourceAlpha" type="matrix" values="0 0 0 0 0 0 0 0 0 0 0 0 0 0 0 0 0 0 127 0" result="hardAlpha"/>
<feOffset dy="13"/>
<feGaussianBlur stdDeviation="10.5"/>
<feColorMatrix type="matrix" values="0 0 0 0 0.992157 0 0 0 0 0.345098 0 0 0 0 0.447059 0 0 0 0.3 0"/>
<feBlend mode="normal" in2="BackgroundImageFix" result="effect1_dropShadow_1_815"/>
<feBlend mode="normal" in="SourceGraphic" in2="effect1_dropShadow_1_815" result="shape"/>
</filter>
<linearGradient id="paint0_linear_1_815" x1="52.8693" y1="113.413" x2="124.878" y2="30.6507" gradientUnits="userSpaceOnUse">
<stop stop-color="#FF5858"/>
<stop offset="1" stop-color="#F857A6"/>
</linearGradient>
</defs>
</svg>
