<svg width="96" height="104" viewBox="0 0 96 104" fill="none" xmlns="http://www.w3.org/2000/svg">
<g id="Group">
<g id="Rounded Rectangle 528" filter="url(#filter0_d_1_825)">
<path fill-rule="evenodd" clip-rule="evenodd" d="M47.7048 16.9999C62.3271 16.9999 74.1809 28.8644 74.1809 43.4999C74.1809 58.1353 62.3271 69.9999 47.7048 69.9999C33.0824 69.9999 21.2285 58.1353 21.2285 43.4999C21.2285 28.8644 33.0824 16.9999 47.7048 16.9999Z" fill="#FF4361"/>
<path fill-rule="evenodd" clip-rule="evenodd" d="M47.7048 16.9999C62.3271 16.9999 74.1809 28.8644 74.1809 43.4999C74.1809 58.1353 62.3271 69.9999 47.7048 69.9999C33.0824 69.9999 21.2285 58.1353 21.2285 43.4999C21.2285 28.8644 33.0824 16.9999 47.7048 16.9999Z" fill="url(#paint0_linear_1_825)"/>
</g>
<g id="Rounded Rectangle 528 copy">
<path fill-rule="evenodd" clip-rule="evenodd" d="M42.2094 0.999936H52.2005C68.7542 0.999936 82.1736 14.4311 82.1736 30.9999V40.9999C82.1736 57.5682 68.7542 70.9998 52.2005 70.9998H42.2094C25.6558 70.9998 12.2363 57.5682 12.2363 40.9999V30.9999C12.2363 14.4311 25.6558 0.999936 42.2094 0.999936Z" fill="#FF4361"/>
<path fill-rule="evenodd" clip-rule="evenodd" d="M42.2094 0.999936H52.2005C68.7542 0.999936 82.1736 14.4311 82.1736 30.9999V40.9999C82.1736 57.5682 68.7542 70.9998 52.2005 70.9998H42.2094C25.6558 70.9998 12.2363 57.5682 12.2363 40.9999V30.9999C12.2363 14.4311 25.6558 0.999936 42.2094 0.999936Z" fill="url(#paint1_linear_1_825)"/>
</g>
<path id="Forma 1" fill-rule="evenodd" clip-rule="evenodd" d="M60.2935 22.9994H37.1143C35.5207 22.9994 34.2169 24.3037 34.2169 25.8988V51.9988L40.0117 46.1988H60.2935C61.8871 46.1988 63.1909 44.894 63.1909 43.2988V25.8988C63.1909 24.3037 61.8871 22.9994 60.2935 22.9994Z" fill="#FEFAFC"/>
</g>
<defs>
<filter id="filter0_d_1_825" x="0.228516" y="9" width="94.9521" height="95" filterUnits="userSpaceOnUse" color-interpolation-filters="sRGB">
<feFlood flood-opacity="0" result="BackgroundImageFix"/>
<feColorMatrix in="SourceAlpha" type="matrix" values="0 0 0 0 0 0 0 0 0 0 0 0 0 0 0 0 0 0 127 0" result="hardAlpha"/>
<feOffset dy="13"/>
<feGaussianBlur stdDeviation="10.5"/>
<feColorMatrix type="matrix" values="0 0 0 0 0.94902 0 0 0 0 0.501961 0 0 0 0 0.27451 0 0 0 0.3 0"/>
<feBlend mode="normal" in2="BackgroundImageFix" result="effect1_dropShadow_1_825"/>
<feBlend mode="normal" in="SourceGraphic" in2="effect1_dropShadow_1_825" result="shape"/>
</filter>
<linearGradient id="paint0_linear_1_825" x1="51.8362" y1="102.635" x2="106.843" y2="39.4138" gradientUnits="userSpaceOnUse">
<stop stop-color="#F80759"/>
<stop offset="1" stop-color="#BC4E9C"/>
</linearGradient>
<linearGradient id="paint1_linear_1_825" x1="52.6134" y1="113.413" x2="124.622" y2="30.6507" gradientUnits="userSpaceOnUse">
<stop stop-color="#F46B45"/>
<stop offset="1" stop-color="#EEA849"/>
</linearGradient>
</defs>
</svg>
