<svg width="96" height="104" viewBox="0 0 96 104" fill="none" xmlns="http://www.w3.org/2000/svg">
<g id="Group">
<g id="Rounded Rectangle 528" filter="url(#filter0_d_1_803)">
<path fill-rule="evenodd" clip-rule="evenodd" d="M48.2145 16.9999C62.837 16.9999 74.6908 28.8644 74.6908 43.4999C74.6908 58.1353 62.837 69.9999 48.2145 69.9999C33.5921 69.9999 21.7383 58.1353 21.7383 43.4999C21.7383 28.8644 33.5921 16.9999 48.2145 16.9999Z" fill="#FF4361"/>
<path fill-rule="evenodd" clip-rule="evenodd" d="M48.2145 16.9999C62.837 16.9999 74.6908 28.8644 74.6908 43.4999C74.6908 58.1353 62.837 69.9999 48.2145 69.9999C33.5921 69.9999 21.7383 58.1353 21.7383 43.4999C21.7383 28.8644 33.5921 16.9999 48.2145 16.9999Z" fill="url(#paint0_linear_1_803)"/>
</g>
<g id="Rounded Rectangle 528 copy">
<path fill-rule="evenodd" clip-rule="evenodd" d="M42.7202 0.999936H52.7112C69.2649 0.999936 82.6843 14.4311 82.6843 30.9999V40.9999C82.6843 57.5682 69.2649 70.9998 52.7112 70.9998H42.7202C26.1666 70.9998 12.7472 57.5682 12.7472 40.9999V30.9999C12.7472 14.4311 26.1666 0.999936 42.7202 0.999936Z" fill="#FF4361"/>
<path fill-rule="evenodd" clip-rule="evenodd" d="M42.7202 0.999936H52.7112C69.2649 0.999936 82.6843 14.4311 82.6843 30.9999V40.9999C82.6843 57.5682 69.2649 70.9998 52.7112 70.9998H42.7202C26.1666 70.9998 12.7472 57.5682 12.7472 40.9999V30.9999C12.7472 14.4311 26.1666 0.999936 42.7202 0.999936Z" fill="url(#paint1_linear_1_803)"/>
</g>
<path id="Combined shape 16704" fill-rule="evenodd" clip-rule="evenodd" d="M51.1442 41.6371C51.3559 41.422 51.4619 41.1682 51.4619 40.8747V38.1661H62.7016V46.2925C62.7016 47.0365 62.4398 47.6747 61.9155 48.2048C61.3915 48.7354 60.7614 49.0005 60.0256 49.0005H35.4048C34.6688 49.0005 34.0387 48.7354 33.5147 48.2048C32.9905 47.6747 32.7285 47.0365 32.7285 46.2925V38.1661H43.9684V40.8747C43.9684 41.1682 44.0744 41.422 44.2863 41.6371C44.4982 41.851 44.749 41.9586 45.0391 41.9586H50.3914C50.6812 41.9586 50.9323 41.851 51.1442 41.6371ZM49.8563 38.1661H45.5741V40.3328H49.8563V38.1661ZM61.9155 28.1274C61.3915 27.5962 60.7614 27.3312 60.0256 27.3312H54.1378V24.6226C54.1378 24.171 53.9818 23.7876 53.6695 23.471C53.3575 23.1559 52.9782 22.9973 52.5324 22.9973H42.8981C42.4521 22.9973 42.0731 23.1559 41.7608 23.471C41.4485 23.7871 41.2924 24.171 41.2924 24.6226V27.3312H35.4048C34.6688 27.3312 34.0387 27.5962 33.5147 28.1274C32.9905 28.657 32.7285 29.2946 32.7285 30.0398V36.5408H62.7016V30.0398C62.7016 29.2946 62.4398 28.657 61.9155 28.1274ZM51.997 27.3312H43.4333V25.164H51.997V27.3312Z" fill="white"/>
</g>
<defs>
<filter id="filter0_d_1_803" x="0.738281" y="9" width="94.9521" height="95" filterUnits="userSpaceOnUse" color-interpolation-filters="sRGB">
<feFlood flood-opacity="0" result="BackgroundImageFix"/>
<feColorMatrix in="SourceAlpha" type="matrix" values="0 0 0 0 0 0 0 0 0 0 0 0 0 0 0 0 0 0 127 0" result="hardAlpha"/>
<feOffset dy="13"/>
<feGaussianBlur stdDeviation="10.5"/>
<feColorMatrix type="matrix" values="0 0 0 0 1 0 0 0 0 0.266667 0 0 0 0 0.341176 0 0 0 0.3 0"/>
<feBlend mode="normal" in2="BackgroundImageFix" result="effect1_dropShadow_1_803"/>
<feBlend mode="normal" in="SourceGraphic" in2="effect1_dropShadow_1_803" result="shape"/>
</filter>
<linearGradient id="paint0_linear_1_803" x1="52.346" y1="102.635" x2="107.353" y2="39.4138" gradientUnits="userSpaceOnUse">
<stop stop-color="#F80759"/>
<stop offset="1" stop-color="#BC4E9C"/>
</linearGradient>
<linearGradient id="paint1_linear_1_803" x1="53.1242" y1="113.413" x2="125.133" y2="30.6507" gradientUnits="userSpaceOnUse">
<stop stop-color="#FF416C"/>
<stop offset="1" stop-color="#FF4B2B"/>
</linearGradient>
</defs>
</svg>
